# xmcd
#
# Track frame offsets: 
#        150
#        12565
#        39135
#        50755
#        67105
#        79112
#        89992
#        110437
#        130200
#        152947
#        166305
#
# Disc length: 2431 seconds
#
# Revision: 7
# Processed by: cddbd v1.5.2PL0 Copyright (c) Steve Scherf et al.
# Submitted via: ExactAudioCopyFreeDBPlugin 1.0
#
DISCID=97097d0b
DTITLE=Various Artist - Mississippi Blues
DYEAR=2002
DGENRE=Blues
TTITLE0=Luther Allison - Part Time Love
TTITLE1=Junior Wells - Come On In This House
TTITLE2=Arthur "Big Boy" Crudup - Mean Ol' Frisco
TTITLE3=Artie White - The More You Lie To Me
TTITLE4=Ike and Tina Turner - 3 O'Clock In The Morning Blues
TTITLE5=Bobby Bland - St. James Infirmary
TTITLE6=Mississippi John Hurt - Make Me A Pallet On Your Floor
TTITLE7=Chris Thomas King - Come On In My Kitchen
TTITLE8=John Lee Hooker - Baby Don't Do Me Wrong
TTITLE9=Memphis Minnie - I Got To Make A Change Blues
TTITLE10=Memphis Slim - Stewball
EXTD=Label: Putumayo World Music\nPUT 196-2\nEAN/UPC: 790248019628
EXTT0=
EXTT1=
EXTT2=
EXTT3=
EXTT4=
EXTT5=
EXTT6=
EXTT7=
EXTT8=
EXTT9=
EXTT10=
PLAYORDER=
